# xmcd
#
# Track frame offsets: 
#        150
#        22132
#        43840
#        77200
#        99982
#        127615
#        156477
#        171642
#
# Disc length: 2589 seconds
#
# Revision: 4
# Processed by: cddbd v1.5.2PL0 Copyright (c) Steve Scherf et al.
# Submitted via: ExactAudioCopy v0.99pb5
#
DISCID=660a1b08
DTITLE=Ernestine Anderson - When The Sun Goes Down
DYEAR=1985
DGENRE=Jazz
TTITLE0=Goin' To Chicago Blues
TTITLE1=Someone Else Is Steppin' In
TTITLE2=In The Evening When The Sun Goes Down
TTITLE3=I Love Being Here With You
TTITLE4=Down Home Blues
TTITLE5=I'm Just A Lucky So And So
TTITLE6=Alone On My Own
TTITLE7=Mercy, Mercy, Mercy
EXTD=Ernestine Anderson: vocals\nRay Brown: bass\nGene Harris: piano\n
EXTD=Red Holloway: tenor saxophone\nGerryck King: drums\n\nA 1985 Conc
EXTD=ord release
EXTT0=
EXTT1=
EXTT2=
EXTT3=
EXTT4=
EXTT5=
EXTT6=
EXTT7=
PLAYORDER=
